<svg version="1.1" xmlns="http://www.w3.org/2000/svg" viewBox="0 0 1244.8055555555557 618.8219013237061" width="1244.8055555555557" height="618.8219013237061" filter="invert(93%) hue-rotate(180deg)">
  <!-- svg-source:excalidraw -->
  
  <defs>
    <style class="style-fonts">
      @font-face {
        font-family: "Virgil";
        src: url("https://excalidraw.com/Virgil.woff2");
      }
      @font-face {
        font-family: "Cascadia";
        src: url("https://excalidraw.com/Cascadia.woff2");
      }
    </style>
    
  </defs>
  <g stroke-linecap="round" transform="translate(500.17488969113515 10) rotate(0 109.48923652894774 57.69240540179169)"><path d="M37.19 12.93 C47.45 7.53, 65.56 5.82, 80.32 3.88 C95.08 1.94, 111.18 0.2, 125.76 1.3 C140.34 2.4, 155.28 6.82, 167.8 10.49 C180.32 14.15, 192.7 17.31, 200.9 23.28 C209.11 29.26, 214.75 38.61, 217.02 46.31 C219.3 54.01, 218.24 61.43, 214.55 69.48 C210.86 77.53, 203.58 88.16, 194.87 94.63 C186.15 101.09, 174.85 105, 162.27 108.26 C149.69 111.52, 134.08 113.91, 119.4 114.2 C104.72 114.49, 88.33 112.5, 74.2 110.01 C60.07 107.52, 45.77 104.37, 34.6 99.26 C23.43 94.15, 12.95 86.37, 7.18 79.36 C1.42 72.36, -0.44 65.01, 0.01 57.24 C0.45 49.47, -4.28 42, 9.86 32.72 C24 23.44, 63.65 6.2, 84.83 1.55 C106.01 -3.09, 136.62 3.7, 136.94 4.84 M64.76 4.79 C77.05 0.82, 93.66 -1.23, 107.7 -1.69 C121.74 -2.15, 135.35 -1.06, 148.97 2.05 C162.59 5.17, 178.67 11.31, 189.44 16.98 C200.21 22.66, 208.38 28.46, 213.58 36.09 C218.77 43.73, 221.67 54.22, 220.61 62.8 C219.54 71.38, 215.02 81.27, 207.2 87.58 C199.37 93.88, 185.6 95.79, 173.66 100.63 C161.72 105.47, 149.03 114.2, 135.56 116.63 C122.1 119.05, 107.68 116.76, 92.87 115.2 C78.05 113.65, 59.5 111.97, 46.67 107.31 C33.84 102.64, 23.67 93.72, 15.88 87.21 C8.09 80.69, 2.26 76.06, -0.08 68.22 C-2.42 60.39, -2.81 47.76, 1.84 40.2 C6.48 32.64, 17.56 28.72, 27.77 22.86 C37.99 17, 57.78 8.05, 63.13 5.05 C68.49 2.06, 59.79 3.7, 59.91 4.9" stroke="#1e1e1e" stroke-width="1" fill="none"></path></g><g transform="translate(538.6986227285261 49.70565655748851) rotate(0 71.04492187499994 18.192057761732826)"><text x="71.044921875" y="0" font-family="Cascadia, Segoe UI Emoji" font-size="30.320096269554753px" fill="#1e1e1e" text-anchor="middle" style="white-space: pre;" direction="ltr" dominant-baseline="text-before-edge">/ (root)</text></g><g stroke-linecap="round" transform="translate(9.999999999999943 510.28158844765323) rotate(0 91.38140125685251 37.05789544056688)"><path d="M41.94 5.41 C51.62 2.24, 65.99 -0.02, 79.35 -0.32 C92.7 -0.62, 109.58 1.63, 122.09 3.6 C134.6 5.57, 145.1 8.08, 154.4 11.49 C163.7 14.89, 173.47 19.18, 177.89 24.03 C182.31 28.89, 181.99 35.31, 180.91 40.62 C179.83 45.94, 178.03 51.28, 171.41 55.91 C164.8 60.54, 152.87 65.54, 141.2 68.42 C129.52 71.3, 114.69 72.9, 101.36 73.2 C88.03 73.5, 73.64 71.65, 61.21 70.25 C48.77 68.84, 35.76 67.96, 26.74 64.76 C17.73 61.57, 11.36 56.48, 7.1 51.07 C2.83 45.66, 0.22 37.51, 1.15 32.3 C2.08 27.1, 2.82 25.06, 12.68 19.83 C22.53 14.59, 49.23 3.99, 60.3 0.92 C71.38 -2.15, 78.78 0.84, 79.11 1.41 M104.86 1.99 C116.93 3.03, 128.47 5.88, 139.09 8.76 C149.71 11.63, 160.94 15.27, 168.6 19.24 C176.25 23.2, 183.67 27.85, 185.02 32.55 C186.37 37.25, 182.01 42.38, 176.71 47.45 C171.4 52.51, 162.48 58.69, 153.2 62.93 C143.91 67.17, 133.75 71.27, 121.01 72.89 C108.27 74.51, 89.97 73.92, 76.77 72.65 C63.57 71.38, 52.5 68.11, 41.82 65.28 C31.13 62.44, 19.38 60.16, 12.64 55.66 C5.9 51.16, 2.7 43.1, 1.38 38.28 C0.06 33.46, 0.38 31.26, 4.71 26.73 C9.04 22.21, 17.42 15.68, 27.35 11.12 C37.29 6.56, 51.92 1.44, 64.32 -0.6 C76.73 -2.64, 95.15 -1.02, 101.77 -1.14 C108.4 -1.26, 103.77 -2.38, 104.07 -1.31" stroke="#1e1e1e" stroke-width="1" fill="none"></path></g><g transform="translate(65.74253181630314 528.9435369639604) rotate(0 35.5224609375 18.192057761732826)"><text x="35.5224609375" y="0" font-family="Cascadia, Segoe UI Emoji" font-size="30.320096269554753px" fill="#1e1e1e" text-anchor="middle" style="white-space: pre;" direction="ltr" dominant-baseline="text-before-edge">/bin</text></g><g stroke-linecap="round" transform="translate(247.92853322636722 489.22596603824024) rotate(0 91.38140125685254 37.05789544056688)"><path d="M35.14 7.42 C43.57 4.14, 56.5 3.76, 69.13 2.81 C81.76 1.86, 97.43 0.59, 110.92 1.73 C124.42 2.88, 139.79 6.14, 150.1 9.68 C160.41 13.22, 167.28 18.41, 172.78 22.97 C178.27 27.53, 183.19 31.72, 183.08 37.05 C182.96 42.38, 177.56 50.47, 172.09 54.97 C166.61 59.47, 160.42 61.13, 150.23 64.05 C140.03 66.96, 124.36 70.83, 110.91 72.46 C97.46 74.08, 82.35 74.65, 69.53 73.78 C56.71 72.92, 44.39 70.6, 34.01 67.27 C23.63 63.94, 12.65 59.08, 7.25 53.82 C1.86 48.56, 1.18 41.34, 1.66 35.73 C2.14 30.13, -0.89 26.19, 10.15 20.19 C21.19 14.18, 52.01 2.68, 67.9 -0.29 C83.78 -3.26, 105.16 1.56, 105.46 2.36 M122.01 4.02 C134.23 5.41, 143.52 5.91, 153.19 9.69 C162.85 13.47, 175.02 21.38, 179.99 26.71 C184.96 32.03, 184.58 36.4, 183.01 41.65 C181.45 46.91, 177.27 53.86, 170.6 58.24 C163.94 62.62, 154.13 65.21, 143.04 67.94 C131.94 70.67, 117.94 74.11, 104.04 74.61 C90.14 75.11, 72.2 72.93, 59.65 70.94 C47.11 68.96, 37.79 66.09, 28.76 62.71 C19.73 59.33, 10.31 55.08, 5.49 50.68 C0.67 46.28, -1.38 42.22, -0.16 36.29 C1.06 30.36, 5.75 20.12, 12.82 15.1 C19.9 10.08, 31.52 9.11, 42.27 6.16 C53.01 3.21, 64.76 -1.44, 77.3 -2.61 C89.83 -3.78, 110.2 -1.31, 117.47 -0.88 C124.74 -0.45, 121.02 -1.06, 120.91 0" stroke="#1e1e1e" stroke-width="1" fill="none"></path></g><g transform="translate(303.6710650426704 507.88791455454736) rotate(0 35.5224609375 18.192057761732826)"><text x="35.5224609375" y="0" font-family="Cascadia, Segoe UI Emoji" font-size="30.320096269554753px" fill="#1e1e1e" text-anchor="middle" style="white-space: pre;" direction="ltr" dominant-baseline="text-before-edge">/dev</text></g><g stroke-linecap="round" transform="translate(472.80258055889817 534.7061104425724) rotate(0 91.38140125685254 37.05789544056688)"><path d="M158.03 11.46 C167.49 14.53, 173.3 20.56, 177.42 25.62 C181.54 30.67, 184.62 36.24, 182.76 41.77 C180.89 47.3, 174.05 54.5, 166.23 58.8 C158.4 63.09, 147.07 64.77, 135.82 67.55 C124.58 70.32, 112.01 74.88, 98.74 75.45 C85.46 76.02, 68.32 72.91, 56.17 70.95 C44.02 68.99, 34.47 67.44, 25.83 63.68 C17.19 59.93, 8.31 53.59, 4.32 48.4 C0.32 43.21, -0.34 38, 1.86 32.57 C4.05 27.14, 9.97 20.37, 17.49 15.83 C25 11.3, 35.98 8.13, 46.95 5.36 C57.92 2.59, 70.11 -0.21, 83.29 -0.77 C96.48 -1.32, 111.1 -1.6, 126.05 2.03 C140.99 5.65, 164.13 15.97, 172.94 20.97 C181.76 25.97, 180.31 32.15, 178.91 32.03 M109.4 -1.77 C121.44 -0.53, 135.73 5.76, 146.06 9.5 C156.39 13.24, 165.25 16.02, 171.38 20.67 C177.51 25.32, 182.27 31.99, 182.83 37.4 C183.39 42.81, 180.1 48.08, 174.74 53.13 C169.39 58.17, 161.3 63.87, 150.67 67.65 C140.05 71.43, 124.45 74.75, 110.99 75.8 C97.54 76.84, 82.42 75.52, 69.94 73.9 C57.47 72.29, 45.97 69.71, 36.15 66.11 C26.33 62.52, 17.16 57.69, 11.05 52.34 C4.93 46.99, -0.14 39.48, -0.57 34.02 C-0.99 28.57, 2.5 24.29, 8.51 19.59 C14.51 14.89, 24.57 8.88, 35.49 5.83 C46.41 2.77, 60.74 1.96, 74.02 1.27 C87.29 0.58, 108.84 1.68, 115.14 1.68 C121.44 1.67, 113.09 1.07, 111.8 1.23" stroke="#1e1e1e" stroke-width="1" fill="none"></path></g><g transform="translate(519.6644971408264 553.3680589588795) rotate(0 44.403076171875 18.192057761732826)"><text x="44.403076171875" y="0" font-family="Cascadia, Segoe UI Emoji" font-size="30.320096269554753px" fill="#1e1e1e" text-anchor="middle" style="white-space: pre;" direction="ltr" dominant-baseline="text-before-edge">/home</text></g><g stroke-linecap="round" transform="translate(689.8860475999464 472.69730244685104) rotate(0 91.38140125685254 37.05789544056688)"><path d="M17.57 12.39 C23.8 7.7, 36.59 4.38, 48.83 2.03 C61.07 -0.32, 77.57 -1.98, 91.04 -1.73 C104.5 -1.48, 117.75 0.81, 129.6 3.51 C141.45 6.21, 153.74 10, 162.15 14.44 C170.55 18.89, 176.79 25.15, 180.05 30.21 C183.31 35.26, 184.17 39.88, 181.7 44.75 C179.24 49.62, 173.44 54.95, 165.26 59.45 C157.08 63.94, 144.7 69.02, 132.61 71.71 C120.52 74.41, 106.09 75.86, 92.72 75.62 C79.36 75.38, 64.74 72.88, 52.42 70.27 C40.1 67.67, 27.26 64.01, 18.82 60 C10.38 55.98, 4.82 51.03, 1.78 46.17 C-1.25 41.32, -6.92 37.46, 0.63 30.86 C8.19 24.27, 33.5 11.58, 47.1 6.59 C60.69 1.59, 81.56 0.98, 82.2 0.89 M33.71 8.16 C43.49 5.32, 61.17 4.19, 74.07 2.96 C86.97 1.74, 98.37 -0.49, 111.09 0.79 C123.81 2.06, 139.9 7, 150.41 10.59 C160.91 14.18, 168.49 17.89, 174.12 22.31 C179.75 26.73, 184.3 31.5, 184.2 37.1 C184.09 42.7, 179.17 50.75, 173.47 55.91 C167.77 61.06, 160.13 64.71, 150 68.02 C139.86 71.33, 126.29 75.28, 112.65 75.77 C99.01 76.27, 81 72.74, 68.17 71 C55.34 69.27, 45.53 68.14, 35.69 65.35 C25.85 62.55, 15.44 59.36, 9.13 54.23 C2.81 49.1, -1.91 39.9, -2.2 34.58 C-2.49 29.27, 1.42 26.47, 7.38 22.34 C13.35 18.2, 28.35 12.07, 33.62 9.78 C38.88 7.49, 37.57 8.72, 39 8.58" stroke="#1e1e1e" stroke-width="1" fill="none"></path></g><g transform="translate(745.6285794162494 491.35925096315816) rotate(0 35.5224609375 18.192057761732826)"><text x="35.5224609375" y="0" font-family="Cascadia, Segoe UI Emoji" font-size="30.320096269554753px" fill="#1e1e1e" text-anchor="middle" style="white-space: pre;" direction="ltr" dominant-baseline="text-before-edge">/usr</text></g><g stroke-linecap="round" transform="translate(865.0688260462629 529.9685954004541) rotate(0 91.38140125685254 37.05789544056688)"><path d="M156.88 10.97 C166.58 13.58, 173.53 18.34, 177.51 23.18 C181.5 28.03, 182.56 34.54, 180.79 40.04 C179.01 45.54, 173.7 51.17, 166.85 56.19 C159.99 61.21, 150.39 67.36, 139.65 70.17 C128.91 72.99, 115.6 72.61, 102.41 73.08 C89.22 73.55, 72.92 74.65, 60.5 73 C48.08 71.35, 37.05 67.01, 27.91 63.18 C18.77 59.35, 10.23 55.11, 5.66 50.03 C1.1 44.94, -1.22 37.94, 0.5 32.69 C2.23 27.45, 8.69 22.91, 16.02 18.56 C23.35 14.21, 33.26 9.89, 44.49 6.58 C55.73 3.27, 70.73 -0.76, 83.43 -1.3 C96.13 -1.84, 107.22 0.59, 120.71 3.34 C134.2 6.09, 156.03 12.72, 164.4 15.2 C172.77 17.68, 172.33 18.11, 170.92 18.22 M140.45 5.13 C152.47 6.59, 162.36 10.31, 168.78 14.44 C175.2 18.57, 177.74 23.8, 178.97 29.91 C180.21 36.01, 179.89 46.12, 176.19 51.09 C172.49 56.06, 165.13 55.85, 156.78 59.73 C148.44 63.61, 137.95 72.16, 126.13 74.36 C114.31 76.56, 99.47 73.46, 85.87 72.9 C72.27 72.34, 56.18 73.79, 44.54 70.99 C32.89 68.19, 23.44 61.05, 16.02 56.1 C8.6 51.16, 1.88 46.86, 0.02 41.33 C-1.83 35.81, 1.05 28.21, 4.89 22.96 C8.73 17.71, 13.68 12.88, 23.06 9.86 C32.44 6.84, 48.53 6.8, 61.17 4.84 C73.8 2.87, 86.03 -1.58, 98.85 -1.92 C111.68 -2.25, 131.54 1.07, 138.1 2.81 C144.66 4.54, 139 7.16, 138.2 8.5" stroke="#1e1e1e" stroke-width="1" fill="none"></path></g><g transform="translate(920.8113578625661 548.6305439167612) rotate(0 35.5224609375 18.192057761732826)"><text x="35.5224609375" y="0" font-family="Cascadia, Segoe UI Emoji" font-size="30.320096269554753px" fill="#1e1e1e" text-anchor="middle" style="white-space: pre;" direction="ltr" dominant-baseline="text-before-edge">/tmp</text></g><g stroke-linecap="round" transform="translate(1052.0427530418506 469.32840286134467) rotate(0 91.38140125685254 37.05789544056688)"><path d="M86.47 1.31 C99.07 0.4, 114.48 2.78, 126.26 4.32 C138.05 5.87, 148.24 6.97, 157.2 10.58 C166.16 14.19, 175.91 20.47, 180.03 25.98 C184.15 31.49, 184.38 38.56, 181.9 43.66 C179.42 48.77, 172.89 52.18, 165.13 56.62 C157.37 61.06, 146.72 67.2, 135.35 70.31 C123.97 73.42, 109.5 75.06, 96.86 75.26 C84.22 75.47, 71.46 73.93, 59.51 71.53 C47.56 69.12, 34.72 65.01, 25.14 60.85 C15.56 56.69, 6.29 51.17, 2.02 46.57 C-2.25 41.98, -2.7 38.67, -0.48 33.28 C1.73 27.89, 7.35 18.66, 15.32 14.23 C23.29 9.8, 27.42 8.48, 47.33 6.69 C67.24 4.89, 114.71 1.3, 134.76 3.45 C154.81 5.61, 168.47 19.14, 167.61 19.62 M60.49 0.11 C71.89 -1.63, 88.17 2.04, 102.15 3.08 C116.12 4.13, 133.39 3.76, 144.36 6.38 C155.33 9, 162.01 13.93, 167.97 18.79 C173.94 23.65, 178.23 30.21, 180.17 35.52 C182.11 40.83, 183.49 45.95, 179.61 50.66 C175.73 55.37, 167.1 59.8, 156.89 63.8 C146.68 67.8, 131.3 73.35, 118.34 74.66 C105.38 75.98, 92.54 72.74, 79.13 71.67 C65.72 70.59, 49.22 71.03, 37.89 68.23 C26.56 65.42, 17.16 59.4, 11.15 54.83 C5.13 50.25, 2.99 45.96, 1.8 40.78 C0.62 35.61, -0.12 29.37, 4.06 23.79 C8.25 18.2, 16.86 11.27, 26.92 7.27 C36.98 3.26, 58.48 0.22, 64.4 -0.23 C70.33 -0.69, 61.8 3.22, 62.48 4.52" stroke="#1e1e1e" stroke-width="1" fill="none"></path></g><g transform="translate(1107.7852848581538 487.9903513776518) rotate(0 35.5224609375 18.192057761732826)"><text x="35.5224609375" y="0" font-family="Cascadia, Segoe UI Emoji" font-size="30.320096269554753px" fill="#1e1e1e" text-anchor="middle" style="white-space: pre;" direction="ltr" dominant-baseline="text-before-edge">/var</text></g><g stroke-linecap="round"><g transform="translate(528.5999799438428 120.6472957614651) rotate(0 -219.13491618242642 186.05797033539932)"><path d="M-1.33 0.72 C-143.17 1.11, -286.6 -2.08, -437.24 -8.33 M-0.71 0.08 C-157.15 -7.24, -316.37 -8.77, -434.65 -6.09 M-437.56 -5.57 C-430.39 145.38, -426.53 295.26, -430.52 379.9 M-434.5 -5.7 C-435.05 137.91, -434 283.06, -429.37 380.45" stroke="#1e1e1e" stroke-width="1" fill="none"></path></g><g transform="translate(528.5999799438428 120.6472957614651) rotate(0 -219.13491618242642 186.05797033539932)"><path d="M-443.17 354.04 C-438.68 365.26, -436.82 372.43, -432.93 377.3 M-441.95 352.77 C-435.6 361.17, -434.36 373.05, -427.83 381.73" stroke="#1e1e1e" stroke-width="1" fill="none"></path></g><g transform="translate(528.5999799438428 120.6472957614651) rotate(0 -219.13491618242642 186.05797033539932)"><path d="M-422.66 353.37 C-424.89 364.95, -429.75 372.33, -432.93 377.3 M-421.44 352.09 C-422.53 360.37, -428.73 372.5, -427.83 381.73" stroke="#1e1e1e" stroke-width="1" fill="none"></path></g></g><mask></mask><g stroke-linecap="round"><g transform="translate(553.8667268351384 132.43844431073637) rotate(0 -107.72039963193356 168.5808887422291)"><path d="M-0.4 1.15 C-62.98 -5.73, -119.97 -2.66, -215.26 -5.14 M1.74 -0.06 C-51.76 -1.38, -106.97 0.49, -214.06 -1.22 M-214.5 -4.77 C-216.82 133.66, -213.26 265.58, -211.72 342.31 M-215.19 -2.02 C-218.86 126.02, -217.05 257.07, -213.04 340.4" stroke="#1e1e1e" stroke-width="1" fill="none"></path></g><g transform="translate(553.8667268351384 132.43844431073637) rotate(0 -107.72039963193356 168.5808887422291)"><path d="M-224.7 313.89 C-224.32 318.94, -217.92 330.98, -212.63 337.4 M-222.25 312.5 C-219.12 318.34, -218.46 328.09, -211.26 341.89" stroke="#1e1e1e" stroke-width="1" fill="none"></path></g><g transform="translate(553.8667268351384 132.43844431073637) rotate(0 -107.72039963193356 168.5808887422291)"><path d="M-204.19 313.19 C-209.5 318.04, -208.79 330.27, -212.63 337.4 M-201.74 311.81 C-203.68 317.84, -208.09 327.76, -211.26 341.89" stroke="#1e1e1e" stroke-width="1" fill="none"></path></g></g><mask></mask><g stroke-linecap="round"><g transform="translate(584.1868231046931 137.49179368899547) rotate(0 -0.4220105830499392 192.31386154256586)"><path d="M-1.47 0.66 C3.15 120.23, -1.36 245.81, -0.94 385.57 M-1.07 -0.94 C-0.71 129.55, -1.95 257.96, 0.24 385.46" stroke="#1e1e1e" stroke-width="1" fill="none"></path></g><g transform="translate(584.1868231046931 137.49179368899547) rotate(0 -0.4220105830499392 192.31386154256586)"><path d="M-12.79 358.49 C-2.88 363.02, -7.16 377.78, -1.34 386.59 M-12.12 355.79 C-6.56 367.64, -5.11 375.78, 0.65 386.42" stroke="#1e1e1e" stroke-width="1" fill="none"></path></g><g transform="translate(584.1868231046931 137.49179368899547) rotate(0 -0.4220105830499392 192.31386154256586)"><path d="M7.73 358.28 C11.13 363.04, 0.34 377.86, -1.34 386.59 M8.4 355.58 C7.07 367.1, 1.64 375.32, 0.65 386.42" stroke="#1e1e1e" stroke-width="1" fill="none"></path></g></g><mask></mask><g stroke-linecap="round"><g transform="translate(698.7294090119 120.6472957614651) rotate(0 31.18553595694823 168.38649104111795)"><path d="M-1.59 3.19 C12.79 2.14, 30.04 4.94, 60.54 3.19 M-1.09 0.35 C13.32 2.34, 25.41 -0.08, 59.75 4.37 M57.32 4.63 C57.94 111.31, 60.37 220.52, 60.42 333.53 M59 4.37 C64.36 76.77, 65.33 147.27, 62.13 336.42" stroke="#1e1e1e" stroke-width="1" fill="none"></path></g><g transform="translate(698.7294090119 120.6472957614651) rotate(0 31.18553595694823 168.38649104111795)"><path d="M50.63 311.29 C51.91 317.41, 55.62 326.98, 62.87 336.24 M51.14 308.46 C54.16 316.08, 55.14 319.22, 62.08 337.42" stroke="#1e1e1e" stroke-width="1" fill="none"></path></g><g transform="translate(698.7294090119 120.6472957614651) rotate(0 31.18553595694823 168.38649104111795)"><path d="M71.15 311.54 C66.85 317.75, 64.99 327.25, 62.87 336.24 M71.66 308.71 C70.11 316.31, 66.51 319.4, 62.08 337.42" stroke="#1e1e1e" stroke-width="1" fill="none"></path></g></g><mask></mask><g stroke-linecap="round"><g transform="translate(725.6806056959487 85.27385011365106) rotate(0 110.67338991411975 215.88683772711585)"><path d="M-3.24 1.08 C88.81 0.51, 171.77 3.55, 221.55 -1.22 M-1.51 -0.1 C46.71 1.14, 92.29 1.85, 220.65 -1.73 M219.16 -2.78 C217.29 100.77, 220.03 199.94, 223.99 434.55 M219.1 -1.71 C215.96 87.97, 217.61 178.01, 224.59 433.99" stroke="#1e1e1e" stroke-width="1" fill="none"></path></g><g transform="translate(725.6806056959487 85.27385011365106) rotate(0 110.67338991411975 215.88683772711585)"><path d="M209.88 407.32 C220.25 414.35, 220.24 429.68, 227.55 434.53 M211.87 405.96 C215.98 410.93, 217.36 418.08, 226.52 433.94" stroke="#1e1e1e" stroke-width="1" fill="none"></path></g><g transform="translate(725.6806056959487 85.27385011365106) rotate(0 110.67338991411975 215.88683772711585)"><path d="M230.39 406.79 C232.64 413.63, 224.5 429.16, 227.55 434.53 M232.39 405.44 C232.14 410.25, 229.18 417.5, 226.52 433.94" stroke="#1e1e1e" stroke-width="1" fill="none"></path></g></g><mask></mask><g stroke-linecap="round"><g transform="translate(729.0495052814548 49.058179569460776) rotate(0 208.13521139613817 204.97996973614482)"><path d="M1.87 -0.3 C108.95 5.23, 216.89 2.42, 411.52 -1.95 M-0.02 0.73 C113.64 2.59, 225.62 2.51, 411.16 -0.75 M413.29 -2.55 C418.64 157.07, 415.86 312.27, 412.53 412.51 M412.67 -0.34 C409.94 137.73, 410.66 277.54, 413.9 411.52" stroke="#1e1e1e" stroke-width="1" fill="none"></path></g><g transform="translate(729.0495052814548 49.058179569460776) rotate(0 208.13521139613817 204.97996973614482)"><path d="M406.54 382.98 C408.37 394.69, 412.19 397.24, 413.3 409.5 M403.09 384.86 C406.6 389.53, 407.44 397.5, 412.65 411.68" stroke="#1e1e1e" stroke-width="1" fill="none"></path></g><g transform="translate(729.0495052814548 49.058179569460776) rotate(0 208.13521139613817 204.97996973614482)"><path d="M427.06 382.61 C423.54 394.1, 422 396.75, 413.3 409.5 M423.6 384.49 C421.48 388.91, 416.68 396.98, 412.65 411.68" stroke="#1e1e1e" stroke-width="1" fill="none"></path></g></g><mask></mask></svg>