<svg xmlns="http://www.w3.org/2000/svg" height="1024" width="1024" viewBox="0 0 29 29"><path fill="#ffffff" d="M0,0 h29v29H0z" shapeRendering="crispEdges"></path><path fill="#000000" d="M0 0h7v1H0zM9 0h3v1H9zM13 0h1v1H13zM15 0h5v1H15zM22,0 h7v1H22zM0 1h1v1H0zM6 1h1v1H6zM11 1h2v1H11zM14 1h1v1H14zM17 1h2v1H17zM20 1h1v1H20zM22 1h1v1H22zM28,1 h1v1H28zM0 2h1v1H0zM2 2h3v1H2zM6 2h1v1H6zM8 2h1v1H8zM10 2h3v1H10zM14 2h1v1H14zM16 2h1v1H16zM18 2h1v1H18zM20 2h1v1H20zM22 2h1v1H22zM24 2h3v1H24zM28,2 h1v1H28zM0 3h1v1H0zM2 3h3v1H2zM6 3h1v1H6zM8 3h2v1H8zM11 3h2v1H11zM15 3h1v1H15zM17 3h4v1H17zM22 3h1v1H22zM24 3h3v1H24zM28,3 h1v1H28zM0 4h1v1H0zM2 4h3v1H2zM6 4h1v1H6zM9 4h2v1H9zM12 4h1v1H12zM15 4h1v1H15zM17 4h3v1H17zM22 4h1v1H22zM24 4h3v1H24zM28,4 h1v1H28zM0 5h1v1H0zM6 5h1v1H6zM9 5h1v1H9zM13 5h1v1H13zM16 5h3v1H16zM20 5h1v1H20zM22 5h1v1H22zM28,5 h1v1H28zM0 6h7v1H0zM8 6h1v1H8zM10 6h1v1H10zM12 6h1v1H12zM14 6h1v1H14zM16 6h1v1H16zM18 6h1v1H18zM20 6h1v1H20zM22,6 h7v1H22zM13 7h2v1H13zM19 7h1v1H19zM3 8h2v1H3zM6 8h2v1H6zM10 8h1v1H10zM14 8h1v1H14zM18 8h2v1H18zM25 8h2v1H25zM1 9h1v1H1zM5 9h1v1H5zM7 9h2v1H7zM14 9h2v1H14zM20 9h1v1H20zM23 9h2v1H23zM27 9h1v1H27zM0 10h2v1H0zM3 10h1v1H3zM6 10h3v1H6zM20 10h3v1H20zM26 10h1v1H26zM1 11h1v1H1zM4 11h1v1H4zM9 11h1v1H9zM19 11h2v1H19zM23 11h2v1H23zM28,11 h1v1H28zM0 12h2v1H0zM4 12h3v1H4zM8 12h1v1H8zM19 12h1v1H19zM21 12h2v1H21zM25 12h1v1H25zM27 12h1v1H27zM0 13h1v1H0zM2 13h1v1H2zM7 13h1v1H7zM9 13h1v1H9zM22 13h1v1H22zM24 13h1v1H24zM26 13h1v1H26zM28,13 h1v1H28zM2 14h6v1H2zM19 14h1v1H19zM21 14h3v1H21zM25 14h1v1H25zM28,14 h1v1H28zM1 15h1v1H1zM4 15h2v1H4zM7 15h2v1H7zM21 15h1v1H21zM24 15h4v1H24zM0 16h1v1H0zM2 16h1v1H2zM6 16h1v1H6zM9 16h1v1H9zM20 16h2v1H20zM25 16h1v1H25zM27 16h1v1H27zM0 17h2v1H0zM3 17h1v1H3zM7 17h1v1H7zM9 17h1v1H9zM19 17h2v1H19zM24 17h3v1H24zM0 18h2v1H0zM4 18h1v1H4zM6 18h4v1H6zM19 18h1v1H19zM23 18h2v1H23zM28,18 h1v1H28zM0 19h2v1H0zM5 19h1v1H5zM7 19h3v1H7zM11 19h1v1H11zM13 19h1v1H13zM15 19h3v1H15zM21 19h4v1H21zM26 19h1v1H26zM28,19 h1v1H28zM0 20h4v1H0zM5 20h2v1H5zM8 20h1v1H8zM12 20h2v1H12zM15 20h1v1H15zM18 20h9v1H18zM28,20 h1v1H28zM8 21h1v1H8zM10 21h4v1H10zM15 21h4v1H15zM20 21h1v1H20zM24 21h4v1H24zM0 22h7v1H0zM8 22h1v1H8zM11 22h2v1H11zM14 22h2v1H14zM17 22h1v1H17zM19 22h2v1H19zM22 22h1v1H22zM24 22h1v1H24zM26 22h1v1H26zM0 23h1v1H0zM6 23h1v1H6zM9 23h3v1H9zM13 23h8v1H13zM24 23h2v1H24zM0 24h1v1H0zM2 24h3v1H2zM6 24h1v1H6zM8 24h2v1H8zM12 24h1v1H12zM15 24h3v1H15zM19 24h6v1H19zM0 25h1v1H0zM2 25h3v1H2zM6 25h1v1H6zM8 25h1v1H8zM10 25h2v1H10zM13 25h4v1H13zM18 25h1v1H18zM23 25h1v1H23zM26 25h2v1H26zM0 26h1v1H0zM2 26h3v1H2zM6 26h1v1H6zM11 26h1v1H11zM13 26h1v1H13zM15 26h4v1H15zM20 26h2v1H20zM23 26h2v1H23zM26,26 h3v1H26zM0 27h1v1H0zM6 27h1v1H6zM10 27h1v1H10zM12 27h1v1H12zM16 27h2v1H16zM19 27h1v1H19zM21 27h1v1H21zM24 27h3v1H24zM28,27 h1v1H28zM0 28h7v1H0zM9 28h1v1H9zM11 28h1v1H11zM15 28h2v1H15zM19 28h2v1H19zM23 28h2v1H23z" shapeRendering="crispEdges"></path><image href="https://app.dub.co/_static/logo.svg" height="7.25" width="7.25" x="10.875" y="10.875" preserveAspectRatio="none"></image></svg>